<svg width="58" height="74" viewBox="0 0 58 74" fill="none" xmlns="http://www.w3.org/2000/svg">
<path d="M6.63849 20.6301H16.5723L29.4495 58.7881L42.2899 20.6301H52.2237L33.4598 74H25.4024L6.63849 20.6301ZM0.898949 20.6301H11.0167L12.8931 60.181V74H0.898949V20.6301ZM47.8454 20.6301H58V74H45.969V60.181L47.8454 20.6301Z" fill="black"/>
<path d="M11.319 12.6882H15.4912C15.4226 13.9711 15.0706 15.1044 14.4353 16.0879C13.8086 17.063 12.9373 17.8284 11.8212 18.3844C10.7052 18.9318 9.37887 19.2055 7.8422 19.2055C6.61457 19.2055 5.51572 18.9959 4.54564 18.5768C3.57556 18.1577 2.75142 17.559 2.07322 16.7807C1.40361 15.9939 0.888525 15.0488 0.527964 13.9454C0.175988 12.8336 0 11.5806 0 10.1865V9.04465C0 7.65054 0.184573 6.39754 0.553718 5.28567C0.922864 4.1738 1.45083 3.22443 2.13761 2.43757C2.82439 1.6507 3.64853 1.04773 4.61003 0.628636C5.57152 0.209545 6.64462 0 7.82932 0C9.42609 0 10.7739 0.286521 11.8728 0.859563C12.9716 1.4326 13.8215 2.21947 14.4224 3.22015C15.0319 4.22084 15.3968 5.36265 15.517 6.64558H11.3319C11.2976 5.91858 11.1602 5.30705 10.9198 4.81099C10.6795 4.30637 10.3103 3.92577 9.8124 3.66918C9.31449 3.41259 8.65346 3.2843 7.82932 3.2843C7.22839 3.2843 6.70042 3.39549 6.24543 3.61786C5.79902 3.84024 5.42558 4.18663 5.12511 4.65703C4.83323 5.12744 4.61432 5.72614 4.46838 6.45314C4.32244 7.17158 4.24947 8.02686 4.24947 9.019V10.1865C4.24947 11.17 4.31385 12.0211 4.44262 12.7395C4.5714 13.4579 4.77743 14.0524 5.06073 14.5228C5.35261 14.9932 5.72605 15.3438 6.18104 15.5748C6.63604 15.8057 7.18975 15.9212 7.8422 15.9212C8.58907 15.9212 9.21147 15.8057 9.70939 15.5748C10.2073 15.3353 10.5893 14.9761 10.8555 14.4971C11.1216 14.0181 11.2761 13.4152 11.319 12.6882Z" fill="#76A5FF"/>
<path d="M22.02 0.269415V18.9489H17.822V0.269415H22.02ZM33.2231 0.269415L25.8831 9.60914L21.6079 14.2277L20.8481 10.3404L23.6682 6.31201L28.0722 0.269415H33.2231ZM28.3555 18.9489L23.1789 10.4174L26.3724 7.94133L33.3261 18.9489H28.3555Z" fill="#76A5FF"/>
<path d="M39.108 0.269415V18.9489H34.9229V0.269415H39.108Z" fill="#76A5FF"/>
<path d="M46.6926 0.269415V18.9489H42.4947V0.269415H46.6926ZM57.8958 0.269415L50.5558 9.60914L46.2806 14.2277L45.5208 10.3404L48.3409 6.31201L52.7449 0.269415H57.8958ZM53.0282 18.9489L47.8516 10.4174L51.0451 7.94133L57.9988 18.9489H53.0282Z" fill="#76A5FF"/>
</svg>
