<svg width="79" height="106" viewBox="0 0 79 106" fill="none" xmlns="http://www.w3.org/2000/svg">
<path d="M8.1566 32.4361H21.8584L39.6201 85.0322L57.331 32.4361H71.0328L45.1515 106H34.0379L8.1566 32.4361ZM0.23999 32.4361H14.1955L16.7836 86.9522V106H0.23999V32.4361ZM64.9937 32.4361H79.0001V106H62.4056V86.9522L64.9937 32.4361Z" fill="white"/>
<path d="M13.6133 18.8633H6.36725V14.293H13.6133C14.7331 14.293 15.6446 14.1107 16.3477 13.7461C17.0508 13.3685 17.5652 12.8477 17.8907 12.1836C18.2162 11.5195 18.379 10.7708 18.379 9.9375C18.379 9.09115 18.2162 8.30339 17.8907 7.57422C17.5652 6.84505 17.0508 6.25911 16.3477 5.81641C15.6446 5.3737 14.7331 5.15234 13.6133 5.15234H8.3985V29H2.53912V0.5625H13.6133C15.8399 0.5625 17.7475 0.966146 19.336 1.77344C20.9376 2.56771 22.1615 3.66797 23.0079 5.07422C23.8542 6.48047 24.2774 8.08854 24.2774 9.89844C24.2774 11.7344 23.8542 13.3229 23.0079 14.6641C22.1615 16.0052 20.9376 17.0404 19.336 17.7695C17.7475 18.4987 15.8399 18.8633 13.6133 18.8633Z" fill="#6B00BE"/>
<path d="M28.3204 0.5625H38.9258C41.1003 0.5625 42.9688 0.888021 44.5313 1.53906C46.1068 2.1901 47.3178 3.15365 48.1641 4.42969C49.0105 5.70573 49.4337 7.27474 49.4337 9.13672C49.4337 10.6602 49.1732 11.9688 48.6524 13.0625C48.1446 14.1432 47.4219 15.0482 46.4844 15.7773C45.56 16.4935 44.4727 17.0664 43.2227 17.4961L41.3672 18.4727H32.1485L32.1094 13.9023H38.9649C39.9936 13.9023 40.8464 13.7201 41.5235 13.3555C42.2006 12.9909 42.7084 12.4831 43.0469 11.832C43.3985 11.181 43.5743 10.4258 43.5743 9.56641C43.5743 8.65495 43.405 7.86719 43.0665 7.20312C42.7279 6.53906 42.2136 6.03125 41.5235 5.67969C40.8334 5.32812 39.9675 5.15234 38.9258 5.15234H34.1797V29H28.3204V0.5625ZM44.2188 29L37.7344 16.3242L43.9258 16.2852L50.4883 28.7266V29H44.2188Z" fill="#6B00BE"/>
<path d="M77.3047 14.1172V15.4648C77.3047 17.6263 77.0118 19.5664 76.4258 21.2852C75.8399 23.0039 75.0131 24.4688 73.9454 25.6797C72.8777 26.8776 71.6016 27.7956 70.1172 28.4336C68.6459 29.0716 67.0118 29.3906 65.2149 29.3906C63.4311 29.3906 61.7969 29.0716 60.3126 28.4336C58.8412 27.7956 57.5652 26.8776 56.4844 25.6797C55.4037 24.4688 54.5639 23.0039 53.9649 21.2852C53.379 19.5664 53.086 17.6263 53.086 15.4648V14.1172C53.086 11.9427 53.379 10.0026 53.9649 8.29688C54.5508 6.57812 55.3777 5.11328 56.4454 3.90234C57.5261 2.69141 58.8021 1.76693 60.2735 1.12891C61.7579 0.490885 63.392 0.171875 65.1758 0.171875C66.9727 0.171875 68.6068 0.490885 70.0782 1.12891C71.5626 1.76693 72.8386 2.69141 73.9063 3.90234C74.987 5.11328 75.8204 6.57812 76.4063 8.29688C77.0053 10.0026 77.3047 11.9427 77.3047 14.1172ZM71.3868 15.4648V14.0781C71.3868 12.5677 71.2501 11.2396 70.9766 10.0938C70.7032 8.94792 70.2995 7.98438 69.7657 7.20312C69.2318 6.42188 68.5808 5.83594 67.8126 5.44531C67.0443 5.04167 66.1654 4.83984 65.1758 4.83984C64.1863 4.83984 63.3074 5.04167 62.5391 5.44531C61.7839 5.83594 61.1394 6.42188 60.6055 7.20312C60.0847 7.98438 59.6876 8.94792 59.4141 10.0938C59.1407 11.2396 59.004 12.5677 59.004 14.0781V15.4648C59.004 16.9622 59.1407 18.2904 59.4141 19.4492C59.6876 20.5951 60.0912 21.5651 60.6251 22.3594C61.1589 23.1406 61.81 23.7331 62.5782 24.1367C63.3464 24.5404 64.2253 24.7422 65.2149 24.7422C66.2045 24.7422 67.0834 24.5404 67.8516 24.1367C68.6199 23.7331 69.2644 23.1406 69.7852 22.3594C70.3061 21.5651 70.7032 20.5951 70.9766 19.4492C71.2501 18.2904 71.3868 16.9622 71.3868 15.4648Z" fill="#6B00BE"/>
</svg>
